HIERARCHY
ROOT Hips
{
	OFFSET 0.000000 71.427986 0.000000
	CHANNELS 6 Xposition Yposition Zposition Xrotation Yrotation Zrotation
	JOINT Pelvis
	{
		OFFSET 0.000000 0.000000 0.000000
		CHANNELS 3 Xrotation Yrotation Zrotation
		JOINT LeftUpLeg
		{
			OFFSET 6.797100 -2.508499 -1.318700
			CHANNELS 3 Xrotation Yrotation Zrotation
			JOINT LeftLeg
			{
				OFFSET 0.069008 -29.241863 0.690200
				CHANNELS 3 Xrotation Yrotation Zrotation
				JOINT LeftFoot
				{
					OFFSET -0.069008 -29.568123 -0.266800
					CHANNELS 3 Xrotation Yrotation Zrotation
					JOINT LeftToeBase
					{
						OFFSET 3.145500 -8.631000 16.059900
						CHANNELS 3 Xrotation Yrotation Zrotation
						End Site
						{
							OFFSET 0.000000 18.501587 0.000000
						}
					}
				}
			}
			JOINT Left_ShortSleeve
			{
				OFFSET 0.265923 -10.480953 1.153800
				CHANNELS 3 Xrotation Yrotation Zrotation
				End Site
				{
					OFFSET 1.725763 19.823879 0.000000
				}
			}
		}
		JOINT RightUpLeg
		{
			OFFSET -6.797100 -2.508499 -1.318700
			CHANNELS 3 Xrotation Yrotation Zrotation
			JOINT RightLeg
			{
				OFFSET -0.082453 -29.241932 0.688000
				CHANNELS 3 Xrotation Yrotation Zrotation
				JOINT RightFoot
				{
					OFFSET 0.082453 -29.568058 -0.264600
					CHANNELS 3 Xrotation Yrotation Zrotation
					JOINT RightToeBase
					{
						OFFSET -3.115300 -8.682800 16.113400
						CHANNELS 3 Xrotation Yrotation Zrotation
						End Site
						{
							OFFSET 0.000000 18.567114 0.000000
						}
					}
				}
			}
			JOINT Right_ShortSleeve
			{
				OFFSET -0.265923 -10.480953 1.153800
				CHANNELS 3 Xrotation Yrotation Zrotation
				End Site
				{
					OFFSET -1.725766 19.823910 0.000000
				}
			}
		}
	}
	JOINT Spine
	{
		OFFSET 0.000000 13.368103 0.470500
		CHANNELS 3 Xrotation Yrotation Zrotation
		JOINT Spine1
		{
			OFFSET 0.147000 13.837402 0.538800
			CHANNELS 3 Xrotation Yrotation Zrotation
			JOINT Spine2
			{
				OFFSET 0.168000 16.242897 -1.435500
				CHANNELS 3 Xrotation Yrotation Zrotation
				JOINT Neck
				{
					OFFSET 0.217200 18.631500 -1.679100
					CHANNELS 3 Xrotation Yrotation Zrotation
					JOINT Head
					{
						OFFSET 0.000000 6.599396 1.385900
						CHANNELS 3 Xrotation Yrotation Zrotation
						JOINT Hat
						{
							OFFSET -0.532200 27.220596 -10.096100
							CHANNELS 3 Xrotation Yrotation Zrotation
							End Site
							{
								OFFSET 0.000000 22.029861 0.000000
							}
						}
						JOINT HairD
						{
							OFFSET -10.777400 17.437393 -1.325900
							CHANNELS 3 Xrotation Yrotation Zrotation
							JOINT HairD1
							{
								OFFSET -3.290299 -11.051193 1.062200
								CHANNELS 3 Xrotation Yrotation Zrotation
								End Site
								{
									OFFSET 0.000000 11.579437 0.000000
								}
							}
						}
						JOINT HairB
						{
							OFFSET -10.777400 17.437393 1.467900
							CHANNELS 3 Xrotation Yrotation Zrotation
							JOINT HairB1
							{
								OFFSET -1.561200 -12.956299 3.590200
								CHANNELS 3 Xrotation Yrotation Zrotation
								End Site
								{
									OFFSET 0.000000 13.534866 0.000000
								}
							}
						}
						JOINT HairA
						{
							OFFSET 9.713100 17.437393 1.467900
							CHANNELS 3 Xrotation Yrotation Zrotation
							JOINT HairA1
							{
								OFFSET 1.561200 -12.956299 3.590200
								CHANNELS 3 Xrotation Yrotation Zrotation
								End Site
								{
									OFFSET 0.000000 13.534866 0.000000
								}
							}
						}
						JOINT HairC
						{
							OFFSET 9.713100 17.437393 -1.325900
							CHANNELS 3 Xrotation Yrotation Zrotation
							JOINT HairC1
							{
								OFFSET 3.290300 -11.051193 1.062200
								CHANNELS 3 Xrotation Yrotation Zrotation
								End Site
								{
									OFFSET 0.000000 11.579437 0.000000
								}
							}
						}
					}
				}
				JOINT LeftShoulder
				{
					OFFSET 5.101800 15.108002 -2.763700
					CHANNELS 3 Xrotation Yrotation Zrotation
					JOINT LeftArm
					{
						OFFSET 9.825497 2.506317 -1.597400
						CHANNELS 3 Xrotation Yrotation Zrotation
						JOINT LeftForeArm
						{
							OFFSET 21.966244 0.000000 0.000000
							CHANNELS 3 Xrotation Yrotation Zrotation
							JOINT LeftHand
							{
								OFFSET 33.879036 0.000000 0.000000
								CHANNELS 3 Xrotation Yrotation Zrotation
								JOINT LeftHandThumb1
								{
									OFFSET 6.715286 -2.359680 3.363841
									CHANNELS 3 Xrotation Yrotation Zrotation
									JOINT LeftHandThumb2
									{
										OFFSET 2.507072 -1.447464 1.447461
										CHANNELS 3 Xrotation Yrotation Zrotation
										JOINT LeftHandThumb3
										{
											OFFSET 2.898338 -1.673355 1.673357
											CHANNELS 3 Xrotation Yrotation Zrotation
											End Site
											{
												OFFSET -0.295959 3.727692 -0.131651
											}
										}
									}
								}
								JOINT LeftHandIndex1
								{
									OFFSET 14.190811 -0.254547 3.840278
									CHANNELS 3 Xrotation Yrotation Zrotation
									JOINT LeftHandIndex2
									{
										OFFSET 3.551727 0.000000 -0.000000
										CHANNELS 3 Xrotation Yrotation Zrotation
										JOINT LeftHandIndex3
										{
											OFFSET 2.894196 0.000000 0.000000
											CHANNELS 3 Xrotation Yrotation Zrotation
											End Site
											{
												OFFSET -1.000603 2.690872 0.366626
											}
										}
									}
								}
								JOINT LeftHandMiddle1
								{
									OFFSET 13.776489 0.000000 0.000000
									CHANNELS 3 Xrotation Yrotation Zrotation
									JOINT LeftHandMiddle2
									{
										OFFSET 3.438232 0.000000 0.000000
										CHANNELS 3 Xrotation Yrotation Zrotation
										JOINT LeftHandMiddle3
										{
											OFFSET 3.691551 0.000000 0.000000
											CHANNELS 3 Xrotation Yrotation Zrotation
											End Site
											{
												OFFSET -1.082298 3.499527 0.457670
											}
										}
									}
								}
								JOINT LeftHandRing1
								{
									OFFSET 13.966164 -0.268127 -3.067488
									CHANNELS 3 Xrotation Yrotation Zrotation
									JOINT LeftHandRing2
									{
										OFFSET 3.162567 0.000000 0.000000
										CHANNELS 3 Xrotation Yrotation Zrotation
										JOINT LeftHandRing3
										{
											OFFSET 3.324348 0.000000 0.000000
											CHANNELS 3 Xrotation Yrotation Zrotation
											End Site
											{
												OFFSET -0.861900 3.184998 0.405154
											}
										}
									}
								}
								JOINT LeftHandPinky1
								{
									OFFSET 13.131393 -0.168503 -5.746925
									CHANNELS 3 Xrotation Yrotation Zrotation
									JOINT LeftHandPinky2
									{
										OFFSET 2.849182 0.000000 0.000000
										CHANNELS 3 Xrotation Yrotation Zrotation
										JOINT LeftHandPinky3
										{
											OFFSET 2.805038 0.000000 0.000000
											CHANNELS 3 Xrotation Yrotation Zrotation
											End Site
											{
												OFFSET -0.882500 2.642609 0.325652
											}
										}
									}
								}
							}
							JOINT Left_Sleeve
							{
								OFFSET 6.592125 -0.646545 0.805568
								CHANNELS 3 Xrotation Yrotation Zrotation
								End Site
								{
									OFFSET -0.000179 20.275787 -0.000000
								}
							}
						}
					}
				}
				JOINT RightShoulder
				{
					OFFSET -5.731700 15.108002 -2.763700
					CHANNELS 3 Xrotation Yrotation Zrotation
					JOINT RightArm
					{
						OFFSET -9.825497 2.506317 -1.597400
						CHANNELS 3 Xrotation Yrotation Zrotation
						JOINT RightForeArm
						{
							OFFSET -21.966242 0.000000 0.000000
							CHANNELS 3 Xrotation Yrotation Zrotation
							JOINT RightHand
							{
								OFFSET -33.879032 0.000000 0.000000
								CHANNELS 3 Xrotation Yrotation Zrotation
								JOINT RightHandThumb1
								{
									OFFSET -6.715286 -2.359680 3.363841
									CHANNELS 3 Xrotation Yrotation Zrotation
									JOINT RightHandThumb2
									{
										OFFSET -2.507072 -1.447464 1.447461
										CHANNELS 3 Xrotation Yrotation Zrotation
										JOINT RightHandThumb3
										{
											OFFSET -2.898338 -1.673355 1.673357
											CHANNELS 3 Xrotation Yrotation Zrotation
											End Site
											{
												OFFSET 0.295959 3.727692 -0.131651
											}
										}
									}
								}
								JOINT RightHandIndex1
								{
									OFFSET -14.190811 -0.254547 3.840278
									CHANNELS 3 Xrotation Yrotation Zrotation
									JOINT RightHandIndex2
									{
										OFFSET -3.551727 0.000000 -0.000000
										CHANNELS 3 Xrotation Yrotation Zrotation
										JOINT RightHandIndex3
										{
											OFFSET -2.894196 0.000000 0.000000
											CHANNELS 3 Xrotation Yrotation Zrotation
											End Site
											{
												OFFSET 1.000603 2.690872 0.366626
											}
										}
									}
								}
								JOINT RightHandMiddle1
								{
									OFFSET -13.776489 0.000000 0.000000
									CHANNELS 3 Xrotation Yrotation Zrotation
									JOINT RightHandMiddle2
									{
										OFFSET -3.438232 0.000000 0.000000
										CHANNELS 3 Xrotation Yrotation Zrotation
										JOINT RightHandMiddle3
										{
											OFFSET -3.691551 0.000000 0.000000
											CHANNELS 3 Xrotation Yrotation Zrotation
											End Site
											{
												OFFSET 1.082298 3.499527 0.457670
											}
										}
									}
								}
								JOINT RightHandRing1
								{
									OFFSET -13.966164 -0.268127 -3.067488
									CHANNELS 3 Xrotation Yrotation Zrotation
									JOINT RightHandRing2
									{
										OFFSET -3.162567 0.000000 0.000000
										CHANNELS 3 Xrotation Yrotation Zrotation
										JOINT RightHandRing3
										{
											OFFSET -3.324348 0.000000 0.000000
											CHANNELS 3 Xrotation Yrotation Zrotation
											End Site
											{
												OFFSET 0.861900 3.184998 0.405154
											}
										}
									}
								}
								JOINT RightHandPinky1
								{
									OFFSET -13.131393 -0.168503 -5.746925
									CHANNELS 3 Xrotation Yrotation Zrotation
									JOINT RightHandPinky2
									{
										OFFSET -2.849182 0.000000 0.000000
										CHANNELS 3 Xrotation Yrotation Zrotation
										JOINT RightHandPinky3
										{
											OFFSET -2.805038 0.000000 0.000000
											CHANNELS 3 Xrotation Yrotation Zrotation
											End Site
											{
												OFFSET 0.882500 2.642609 0.325652
											}
										}
									}
								}
							}
							JOINT Right_Sleeve
							{
								OFFSET -6.592125 -0.646545 0.805568
								CHANNELS 3 Xrotation Yrotation Zrotation
								End Site
								{
									OFFSET 0.000179 20.275787 -0.000000
								}
							}
						}
					}
				}
				JOINT Bind_Right_JacketString
				{
					OFFSET -3.534800 11.969597 7.200700
					CHANNELS 3 Xrotation Yrotation Zrotation
					JOINT Bind_Right_JacketString1
					{
						OFFSET -0.319900 -6.102600 2.794100
						CHANNELS 3 Xrotation Yrotation Zrotation
						End Site
						{
							OFFSET 0.000000 6.719452 0.000000
						}
					}
				}
				JOINT Bind_Left_JacketString
				{
					OFFSET 2.904800 11.969597 7.200700
					CHANNELS 3 Xrotation Yrotation Zrotation
					JOINT Bind_Left_JacketString1
					{
						OFFSET 0.364800 -5.904503 3.186800
						CHANNELS 3 Xrotation Yrotation Zrotation
						End Site
						{
							OFFSET 0.000000 6.719513 0.000000
						}
					}
				}
				JOINT HairE
				{
					OFFSET 5.915200 17.612701 -11.592200
					CHANNELS 3 Xrotation Yrotation Zrotation
					JOINT HairE1
					{
						OFFSET 0.289200 -7.171898 -1.284500
						CHANNELS 3 Xrotation Yrotation Zrotation
						End Site
						{
							OFFSET 0.000000 7.291756 0.000000
						}
					}
				}
				JOINT HairF
				{
					OFFSET -0.864800 17.612701 -11.592200
					CHANNELS 3 Xrotation Yrotation Zrotation
					JOINT HairF1
					{
						OFFSET 0.000000 -14.087097 -2.127501
						CHANNELS 3 Xrotation Yrotation Zrotation
						End Site
						{
							OFFSET 0.000000 14.246841 0.000000
						}
					}
				}
				JOINT HairG
				{
					OFFSET -8.087700 17.612701 -11.592200
					CHANNELS 3 Xrotation Yrotation Zrotation
					JOINT HairG1
					{
						OFFSET -0.293600 -6.081398 -0.910100
						CHANNELS 3 Xrotation Yrotation Zrotation
						End Site
						{
							OFFSET 0.000000 6.156120 0.000000
						}
					}
				}
			}
		}
	}
	JOINT Pouch
	{
		OFFSET 0.000000 4.394501 10.847300
		CHANNELS 3 Xrotation Yrotation Zrotation
		End Site
		{
			OFFSET 0.000000 21.880577 0.000000
		}
	}
	JOINT Bag
	{
		OFFSET -13.229000 4.813004 -0.593300
		CHANNELS 3 Xrotation Yrotation Zrotation
		End Site
		{
			OFFSET 0.000000 21.880577 0.000000
		}
	}
	JOINT OccupyGuyFacialAnim_Joint
	{
		OFFSET 1.000000 -70.206398 -1.655000
		CHANNELS 3 Xrotation Yrotation Zrotation
		End Site
		{
			OFFSET 0.000000 21.880577 0.000000
		}
	}
}
MOTION
Frames: 4
Frame Time: 0.033333
0.435944 53.726639 1.172493 12.014813 -50.840271 12.273814 -0.000000 0.000000 -0.000000 -73.880510 19.124869 45.550822 71.754832 -18.640001 3.875681 -10.702900 2.129570 -6.801523 0.000000 -0.000000 0.000000 -0.000002 0.000000 0.000000 -42.024139 6.809612 -25.291316 76.567104 3.692732 -8.112392 -40.377797 -6.761635 25.350688 -0.000000 -0.000002 -0.000000 0.000001 0.000003 -0.000001 9.214935 3.042323 -0.229245 2.656215 6.540232 -0.765276 -9.278703 6.563489 0.600687 10.992517 23.723866 -0.487504 -0.531655 10.885628 -11.585020 0.000002 0.000000 0.000000 0.000002 0.000000 0.000000 0.000002 0.000000 -0.000000 0.000002 0.000000 0.000000 0.000002 0.000000 0.000001 0.000002 0.000000 0.000000 0.000002 0.000000 0.000001 0.000002 0.000000 0.000000 0.000002 0.000000 0.000000 -0.957320 6.275718 2.765007 -58.958821 -3.958503 -10.658689 115.078920 -47.646891 105.687431 29.850088 -5.233829 30.303910 21.113023 -10.780601 7.908416 -0.875989 11.614959 -8.441780 -0.000004 0.000001 -0.000001 -1.207561 -5.079235 -3.657854 0.130863 -0.234691 -5.449286 0.000001 -0.000003 -0.000001 1.850567 4.741463 -10.380661 0.465721 -1.042276 -13.790406 0.000001 0.000002 -0.000003 3.060233 7.856521 -20.711869 -0.717885 -0.608136 -19.935256 -0.000000 0.000000 -0.000005 9.382584 13.916191 -17.033450 -0.841651 -0.254100 -17.070029 -0.000001 -0.000003 0.000002 -0.000002 -0.000000 0.000002 0.024421 24.592135 -3.913829 -53.524320 53.032830 75.936848 -8.891107 48.937175 6.537737 0.537859 7.635471 -21.714706 55.149536 18.649505 -29.698270 -0.442589 -14.180542 7.313095 -0.000000 -0.000001 0.000001 5.673385 7.584989 36.844141 1.050459 3.824535 68.900271 0.000001 0.000002 0.000001 -0.125671 1.886102 45.000691 -1.169027 3.204646 68.417663 -0.000005 -0.000001 0.000001 -5.311986 1.216697 58.508814 -0.745188 1.667573 48.011257 0.000001 -0.000001 -0.000000 -7.756797 -9.376493 47.263926 -0.526074 1.541557 45.600559 -0.000001 -0.000000 0.000002 0.000001 -0.000001 0.000000 -0.000000 0.000001 -0.000000 -0.000000 -0.000001 0.000001 -0.000000 0.000001 0.000000 -0.000000 0.000001 0.000000 -0.000000 0.000001 -0.000000 -0.000000 -0.000001 0.000001 -0.000000 0.000001 0.000000 -0.000000 0.000001 0.000000 -0.000000 0.000001 -0.000000 -0.000000 -0.000001 0.000001 -0.000000 0.000000 -0.000000 -0.000000 0.000000 -0.000000 -0.000000 0.000000 -0.000000 
0.436049 53.556717 1.088788 11.932013 -50.573559 12.263166 0.000000 0.000000 0.000000 -74.209008 18.979330 45.467989 72.092749 -18.695013 3.969145 -10.632858 2.038050 -6.763522 0.000000 0.000000 -0.000000 0.000001 0.000000 0.000001 -42.204388 6.904693 -25.361865 77.148503 3.588924 -8.132260 -40.652791 -6.907758 25.378539 0.000000 0.000001 0.000000 0.000003 0.000000 0.000002 9.353692 3.012046 -0.236907 2.835397 6.496190 -0.760380 -9.101009 6.519119 0.584667 9.639864 23.737173 -0.804883 -0.118417 10.587662 -11.056634 -0.000001 -0.000000 0.000000 -0.000001 -0.000000 0.000000 -0.000001 -0.000000 -0.000000 -0.000001 -0.000000 -0.000000 -0.000001 0.000000 0.000000 -0.000001 -0.000000 -0.000000 -0.000001 0.000000 0.000000 -0.000001 -0.000000 0.000000 -0.000001 -0.000000 0.000000 -0.929602 6.322742 2.473533 -59.375292 -3.936450 -10.686423 114.588212 -47.625109 105.088812 29.814892 -5.025635 30.821099 21.113025 -10.780596 7.908417 -0.878255 11.610988 -8.441227 0.000000 -0.000001 -0.000001 -1.214250 -5.116145 -3.565588 0.130992 -0.233840 -5.428714 0.000002 0.000001 0.000002 1.842644 4.728864 -10.228411 0.465606 -1.041739 -13.775870 0.000000 0.000000 -0.000001 3.051536 7.852312 -20.536504 -0.717553 -0.607300 -19.910795 -0.000002 0.000000 -0.000001 9.354347 13.948261 -16.934163 -0.841497 -0.250631 -16.965066 0.000002 -0.000000 -0.000001 -0.000000 -0.000000 0.000002 0.067218 24.612010 -3.819376 -54.377117 53.442586 75.794438 -8.747260 48.486564 6.314560 0.575400 7.560023 -21.456761 55.149529 18.649504 -29.698274 -0.442590 -14.180542 7.313088 -0.000001 -0.000002 0.000001 5.673392 7.584986 36.844144 1.050456 3.824530 68.900257 -0.000001 -0.000002 0.000005 -0.125672 1.886099 45.000688 -1.169029 3.204646 68.417670 -0.000002 -0.000003 0.000000 -5.311986 1.216695 58.508814 -0.745179 1.667575 48.011261 0.000000 -0.000004 -0.000001 -7.756799 -9.376496 47.263926 -0.526075 1.541556 45.600559 -0.000001 0.000003 -0.000001 0.000005 -0.000001 0.000001 -0.000000 0.000002 -0.000001 -0.000000 0.000000 -0.000000 -0.000000 0.000002 -0.000000 -0.000000 0.000002 -0.000000 -0.000000 0.000002 -0.000001 -0.000000 0.000000 -0.000000 -0.000000 0.000002 -0.000000 -0.000000 0.000002 -0.000000 -0.000000 0.000002 -0.000001 -0.000000 0.000000 -0.000000 0.000000 0.000000 0.000000 0.000000 0.000000 0.000000 0.000000 0.000000 0.000000 
0.429993 53.377625 1.008452 11.770163 -50.277067 12.155550 -0.000000 -0.000003 -0.000000 -74.545388 18.806680 45.404632 72.473040 -18.771042 4.083956 -10.564375 1.921087 -6.708054 0.000000 0.000000 -0.000000 0.000000 0.000000 0.000000 -42.324705 6.975094 -25.447249 77.735694 3.518621 -8.091944 -40.904121 -7.001918 25.373629 0.000000 0.000001 0.000000 -0.000006 0.000002 -0.000000 9.538978 2.980147 -0.218565 3.051699 6.428516 -0.728244 -8.880862 6.443591 0.586262 8.260231 23.673188 -1.163197 0.254987 10.293513 -10.612730 0.000000 0.000000 0.000000 0.000000 0.000000 0.000000 0.000000 0.000000 0.000000 0.000000 0.000000 0.000000 0.000000 0.000000 0.000000 0.000000 0.000000 0.000000 0.000000 0.000000 0.000000 0.000000 0.000000 0.000000 0.000000 0.000000 0.000000 -0.894659 6.320231 2.117730 -59.946221 -3.845798 -10.710176 114.119074 -47.630457 104.522877 29.862123 -4.917177 31.307586 21.113027 -10.780598 7.908416 -0.880823 11.606590 -8.440643 0.000003 -0.000001 -0.000000 -1.219797 -5.150111 -3.470272 0.131048 -0.232961 -5.407007 0.000001 0.000000 -0.000000 1.836479 4.718196 -10.070735 0.465579 -1.041104 -13.759289 0.000002 0.000001 -0.000001 3.044370 7.849344 -20.355159 -0.717226 -0.606292 -19.884866 0.000001 0.000003 -0.000000 9.323069 13.982406 -16.848521 -0.841178 -0.246613 -16.855626 -0.000001 -0.000003 0.000002 0.000002 -0.000003 -0.000000 0.096431 24.679108 -3.737825 -55.276584 53.937772 75.616382 -8.551556 47.990391 5.990422 0.541016 7.494360 -21.159200 55.149533 18.649497 -29.698270 -0.442591 -14.180542 7.313091 -0.000001 0.000001 -0.000003 5.673389 7.584988 36.844137 1.050460 3.824533 68.900271 -0.000004 0.000000 0.000004 -0.125675 1.886098 45.000691 -1.169028 3.204642 68.417670 -0.000002 0.000001 -0.000001 -5.311991 1.216691 58.508821 -0.745182 1.667572 48.011261 -0.000001 -0.000001 -0.000000 -7.756798 -9.376496 47.263926 -0.526078 1.541554 45.600556 -0.000002 0.000002 0.000001 0.000003 -0.000001 -0.000002 -0.000000 -0.000001 0.000000 -0.000000 0.000001 -0.000000 -0.000000 -0.000001 -0.000000 -0.000000 -0.000001 -0.000000 -0.000000 -0.000001 0.000000 -0.000000 0.000001 -0.000000 -0.000000 -0.000001 -0.000000 -0.000000 -0.000001 -0.000000 -0.000000 -0.000001 0.000000 -0.000000 0.000001 -0.000000 -0.000000 -0.000003 -0.000000 -0.000000 -0.000003 -0.000000 -0.000000 -0.000003 -0.000000 
0.410823 53.199074 0.938499 11.584113 -50.036265 12.059972 -0.000000 0.000000 0.000001 -74.816963 18.655533 45.364132 72.857307 -18.841951 4.187447 -10.527869 1.828797 -6.674908 0.000000 -0.000000 0.000000 0.000001 -0.000000 -0.000000 -42.531602 6.884316 -25.671812 78.326847 3.552502 -8.096523 -41.117114 -6.940569 25.323427 -0.000000 0.000002 0.000000 0.000002 0.000000 0.000001 9.721098 2.966884 -0.218456 3.328568 6.355162 -0.716874 -8.603083 6.368152 0.586956 6.864333 23.560171 -1.556350 0.570110 10.036264 -10.190833 0.000000 0.000000 0.000000 0.000000 0.000000 0.000000 0.000000 0.000000 0.000000 0.000000 0.000000 0.000000 0.000000 -0.000000 0.000000 0.000000 0.000000 0.000000 0.000000 -0.000000 0.000000 0.000000 0.000000 0.000000 0.000000 0.000000 0.000000 -0.858173 6.082591 1.691362 -60.553479 -3.606538 -10.237201 113.949467 -47.743712 104.261772 29.866829 -4.718747 31.771035 21.113023 -10.780597 7.908419 -0.883761 11.601465 -8.439908 -0.000002 0.000001 0.000000 -1.223824 -5.179674 -3.374505 0.131130 -0.232050 -5.384731 0.000000 0.000003 -0.000001 1.832543 4.710054 -9.911863 0.465598 -1.040351 -13.740976 0.000000 0.000001 -0.000001 3.039114 7.847979 -20.172839 -0.716939 -0.605248 -19.857969 -0.000002 -0.000002 -0.000001 9.289261 14.017887 -16.781078 -0.840600 -0.242218 -16.744578 -0.000003 -0.000001 0.000003 0.000001 -0.000001 -0.000001 0.150615 24.638237 -3.759328 -56.698708 54.487014 75.898954 -8.342678 47.189476 5.664737 0.557095 7.616808 -20.894525 55.149533 18.649509 -29.698270 -0.442590 -14.180537 7.313090 0.000000 -0.000000 0.000004 5.673395 7.584986 36.844141 1.050459 3.824532 68.900264 0.000003 -0.000001 0.000004 -0.125669 1.886098 45.000695 -1.169027 3.204641 68.417663 -0.000002 -0.000003 0.000002 -5.311984 1.216697 58.508814 -0.745181 1.667572 48.011261 0.000003 0.000002 -0.000002 -7.756791 -9.376495 47.263932 -0.526073 1.541554 45.600563 -0.000001 -0.000002 0.000002 0.000000 -0.000001 0.000000 -0.000001 -0.000001 -0.000000 -0.000000 0.000003 -0.000002 -0.000001 -0.000001 0.000000 -0.000001 -0.000001 0.000000 -0.000001 -0.000001 -0.000000 -0.000000 0.000003 -0.000001 -0.000001 -0.000001 0.000000 -0.000001 -0.000001 0.000000 -0.000001 -0.000001 -0.000000 -0.000000 0.000003 -0.000001 -0.000000 0.000000 0.000001 -0.000000 0.000000 0.000001 -0.000000 0.000000 0.000001 
